Patient4_TMGait_0pt4_02_right_08_EMG.mot
version=1
nRows=33
nColumns=33
inDegrees=no
endheader
time	1LAddLong	2LGlutMax	3LGlutMed	4LIliopsoas	5LSemiMemb	6LBicFemLong	7LRecFem	8LVastMed	9LVastLat	10LGasMed	11LTibAnt	12lTibPost	13LPeroneusLong	14LSol	15LExtDigLong	16LFlexDigLong	17RAddLong	18RGlutMax	19RGlutMed	20RIliopsoas	21RSemiMemb	22RBicFemLong	23RRecFem	24RVastMed	25RVastLat	26RGasMed	27RTibAnt	28RTibPost	29RPeroneusLong	30RSol	31RExtDigLong	32RFlexDigLong
10.11	-0.000458	-0.080109	-0.059662	0.008545	0.015869	0.037842	0.081329	-0.009155	-0.2124	0.26032	-0.035858	-0.010223	0.000916	0.079651	-0.17639	-0.040436	0.001678	-0.000305	0.14069	-0.064087	0.058441	-0.030212	0.029144	-0.07309	-0.002136	-0.011597	-0.16647	-0.002594	-0.20462	-0.014191	0.000458	0.001831
10.111	-0.004425	-0.07843	0.019379	0.002289	0.016479	0.007324	0.044403	-0.00473	-0.13351	0.24262	0.13062	-0.013275	-0.062256	0.17654	-0.14313	-0.069885	0.006104	-0.019379	-0.34225	-0.10635	0.063782	-0.009613	0.019684	-0.094757	0.010986	-0.017395	-0.11978	-0.002899	-0.28336	0.031586	-0.00061	0.003662
10.112	0.001984	-0.11169	-0.008087	0.016937	0.006256	0.013123	0.026245	-0.005951	-0.05661	0.27863	0.29129	-0.014496	-0.043335	0.10346	-0.023193	-0.035858	-0.001831	-0.076752	-0.57129	-0.06897	0.054626	-0.018311	0.003815	-0.081635	-0.015717	-0.018616	-0.013885	-0.002747	-0.19836	-0.032654	-0.00061	0.005951
10.113	-0.000763	-0.10956	0.00885	-0.006409	0.012512	-0.004578	0.011597	-0.002136	-0.092926	0.081177	0.24948	-0.005035	0.039673	0.19562	0.20462	0.033875	-0.00061	-0.10666	-0.47669	-0.079803	0.056152	-0.007477	-0.008698	-0.058289	-0.001831	-0.015564	-0.15503	-0.003204	-0.11887	-0.0354	0.000763	0.000305
10.114	0.002747	-0.12726	0.095825	-0.013885	0.022736	0.005188	-0.007935	-0.001526	-0.082397	-0.26749	0.21484	-0.005493	0.001068	0.31067	0.50125	-0.50507	-0.008545	-0.103	-0.34195	-0.054932	0.045319	-0.009918	-0.004425	-0.047455	0.003967	-0.004272	0.11871	-0.003815	-0.1178	-0.031586	0.000305	0.001373
10.115	0.001678	-0.14114	0.10941	0.01297	0.02182	0.007019	0.00824	0.004578	-0.04364	-0.19577	0.13306	-0.00824	-0.073853	0.17532	0.1741	0.10468	-0.003662	-0.10757	-0.13092	0.016632	0.040436	-0.001373	0.002747	-0.08728	-0.00061	-0.00885	0.24643	-0.003052	-0.092621	-0.014191	-0.002136	0.007935
10.116	0.004272	-0.14572	-0.009918	0.028076	0.01358	-0.010986	-0.006866	0.007477	-0.027771	-0.02655	-0.22675	-0.01236	0.070953	-0.014343	0.068512	0.64407	-0.006104	-0.059204	-0.030975	0.093689	0.048676	-0.016022	-0.01358	-0.10269	0.009155	-0.00946	0.17609	-0.006714	-0.13046	0.000305	-0.000153	0.007629
10.117	0.005798	-0.12589	0.027466	0.016174	0.009003	-0.006409	0.002747	0.009155	-0.0383	0.34668	-0.20844	-0.000305	0.23285	-0.11444	-0.40375	-0.41962	0.001068	-0.072479	0.10407	0.072021	0.048523	0.009766	-0.003357	-0.059509	0.019379	-0.009766	0.11917	-0.003357	0.13168	0.010834	-0.000458	0.003815
10.118	0.004272	-0.14725	0.078125	0.0177	0.009766	-0.013885	0.017548	0.01358	-0.026093	0.78247	-0.1915	0.006104	0.0737	-0.031891	0.40222	-0.27481	0.006104	-0.080109	0.09613	0.10544	0.044708	0.003967	-0.04425	-0.053711	0.007782	-0.007935	-0.063934	-0.004883	0.1358	-0.000916	-0.001526	0.003662
10.119	0.002747	-0.1564	0.057983	0.006561	0.023956	-0.013123	0.007782	-0.018768	-0.02182	-0.19684	-0.1593	0.008087	-0.090637	-0.001831	-0.13886	0.75287	-0.004883	-0.088043	0.21912	0.020447	0.040131	0.009308	-0.027466	-0.084381	0.026703	-0.013275	-0.09491	-0.011139	0.042267	-0.013123	-0.002289	-0.001984
10.12	0.00824	-0.12726	-0.024414	0.010071	0.015411	-0.001984	-0.002747	0.005646	-0.006256	-0.94498	-0.02594	0.014496	-0.066528	0.071716	-0.006104	0.21668	0.004272	-0.1207	0.23254	-0.084686	0.044708	0.025787	-0.028229	-0.035553	0.013275	-0.009766	-0.11169	-0.006256	-0.020599	-0.02533	-0.002289	-0.00061
10.121	-0.000305	-0.12573	-0.039673	0.01709	0.020905	-0.019073	0.014038	0.013428	0.004425	-0.60074	0.11383	0.005646	-0.037537	0.093079	-0.40176	0.29388	0.049438	-0.067444	-0.054474	-0.1413	0.046692	0.024719	-0.025177	-0.053406	0.021362	-0.009003	-0.12756	-0.007324	-0.024719	0.046387	-0.003357	-0.000305
10.122	0.008698	-0.13046	0.025177	0.017395	0.016327	-0.027161	-0.007935	0.005493	0.006104	-0.13199	0.021515	0.006561	-0.012817	-0.095367	-0.80933	0.10269	0.062561	-0.013733	-0.014801	0.003204	0.046844	0.012054	0.005188	-0.055847	0.002899	-0.009003	-0.13702	-0.001831	-0.079498	0.080109	-0.000458	-0.007324
10.123	-0.002594	-0.14206	0.005646	0.000763	0.01709	-0.016174	-0.015564	0.00351	0.010071	0.022736	-0.069275	0.003357	0.010376	-0.06012	-0.28885	-0.10056	0.033112	-0.027161	0.083618	0.10727	0.042114	-0.02182	-0.001678	0.004883	0	-0.005341	0.000458	-0.003052	-0.055237	0.009308	-0.000458	-0.000153
10.124	0.001221	-0.1329	0.019684	-0.010223	0.021667	-0.009308	-0.018463	0.010071	-0.037384	-0.16174	-0.021057	0.005951	-0.024109	-0.016785	-0.61874	-0.18539	0.012207	-0.03067	0.069733	0.071869	0.044098	-0.031738	-0.003815	-0.054169	0.005035	-0.002289	0.29877	-0.00473	-0.30029	-0.030975	0.000763	-0.00351
10.125	0.007629	-0.14343	0.015106	0.007172	0.00885	-0.027466	0.006104	0.013428	-0.055084	-0.15839	0.041351	0.012817	-0.046234	-0.28702	0.050659	-0.13229	-0.00824	-0.020905	0.040588	0.11078	0.032654	-0.047302	-0.013123	-0.068512	-0.001831	0.001068	0.26672	-0.008545	-0.20676	-0.063629	0.000763	-0.000458
10.126	-0.005951	-0.13245	0.010834	0.012512	0.011749	-0.017242	0.0177	0.01236	-0.066071	-0.1474	0.068512	0.015869	0.003357	-0.39032	-0.28168	-0.073547	-0.019684	-0.002594	0.12711	0.043793	0.026245	-0.041809	-0.023346	-0.10361	-0.014496	0.009613	0.13443	-0.006561	-0.028687	-0.010071	-0.00824	0.00351
10.127	0.014648	-0.12009	0.085449	0.013275	0.008545	-0.011444	0.042114	0.006409	-0.037079	0.026093	-0.022125	0.024719	0.065002	-0.38986	-0.20966	-0.016174	-0.028839	0.050201	0.22873	-0.020752	0.04303	-0.050964	-0.011139	-0.10727	-0.01709	-0.008545	0.071106	-0.007477	0.41153	0.034485	0.000305	0.001068
10.128	0.005951	-0.13687	-0.003357	0.015564	0.010986	-0.022888	-0.002136	0.010071	0.010834	0.091858	-0.041809	0.005951	0.061798	-0.21225	-0.033264	-0.002899	-0.016327	0.029602	0.015411	-0.018005	0.020599	-0.042877	-0.043182	-0.069275	-0.002747	-0.010681	0.019989	-0.002747	0.58914	0.021515	-0.003204	0.009155
10.129	0.000763	-0.11429	-0.001526	0.002441	0.014343	-0.027618	-0.057373	-0.007019	0.10452	0.15335	0.059357	0.019531	-0.031738	-0.049133	0.47424	0.00946	0.003204	0.035858	-0.14801	0.097504	0.025177	-0.048523	-0.034332	-0.062561	-0.011292	-0.007782	-0.033112	-0.007019	0.2272	-0.007324	0.009155	0.004272
10.13	0.002136	-0.092316	0.06424	0.010986	0.013733	-0.019684	-0.04364	-0.007782	0.19119	0.088348	0.076447	0.024567	-0.06958	0.16754	0.53879	0.006866	-0.007324	0.037994	0.049591	0.084381	0.025177	-0.037689	-0.04425	-0.083313	-0.026703	-0.007019	-0.016174	-0.004272	0.024414	0.015259	-0.001221	0.00351
10.131	-0.000153	-0.10925	0.059509	0.015869	0.017853	-0.027161	-0.039368	-0.001984	0.15533	-0.006104	0.17593	0.032501	-0.058594	0.27969	0.18799	0.012665	-0.019989	0.030823	0.54077	0.007172	0.024261	-0.018158	-0.039215	-0.088348	-0.028534	-0.003662	0.009155	-0.00885	0.017395	0.011749	-0.000153	0.006256
10.132	0.00351	-0.10513	-0.027618	0.004425	0.011749	-0.016327	-0.10864	0.013733	0.089417	-0.072174	0.25925	0.033112	-0.018768	0.19424	0.13321	0.019379	-0.031433	0.029602	1.0428	0.000763	0.018616	-0.007935	-0.058899	-0.092621	0.010681	-0.000763	0.008698	0.000458	0.02594	-0.024567	-0.000458	0.003967
10.133	0.009155	-0.086975	-0.050507	0.005798	0.019989	-0.02182	-0.13062	0.011292	0.045624	-0.089417	0.26718	0.022736	0.038452	0.22751	0.13046	0.009613	-0.022125	-0.043335	0.035553	0.001678	0.015106	-0.023804	-0.057983	-0.051117	0.003815	-0.003357	0.031891	-0.00824	0.026398	-0.017242	0	0.010986
10.134	-0.002289	-0.074768	-0.11078	0.009918	0.014801	-0.024719	-0.092163	0.02182	0.062256	-0.056	0.12329	0.024261	0.030823	0.23163	0.85083	-0.005341	-0.017853	-0.052032	-0.52948	0.002441	0.014343	-0.014954	-0.032349	-0.054626	-0.001221	-0.004272	0.034027	-0.002441	0.054932	0.001984	-0.001984	-0.002747
10.135	-0.001526	-0.066833	0.078125	0.007477	0.011902	-0.015869	0.004272	0.019989	0.10407	-0.065308	-0.40375	0.02533	0.027771	0.21271	0.59677	0.004425	-0.02594	0.037079	-0.1059	-0.030823	0.009155	-0.023193	-0.069122	-0.022583	0.006409	-0.003357	0.034943	-0.011444	0.047302	0.008545	0	0.000458
10.136	-0.001221	-0.084991	0.001984	0.007629	0.024567	0.009308	0.04776	0.001221	0.13962	-0.046844	-0.40848	0.020294	-0.091553	0.30197	-0.39368	-0.002899	-0.028381	-0.013733	0.10635	-0.11902	-0.007782	-0.028687	-0.046844	-0.030518	-0.00412	-0.002899	0.018921	-0.003662	0.06134	0.00885	0.001373	-0.002441
10.137	-0.009918	-0.10315	0.11536	0.017395	0.022888	0.026855	0.01709	-0.002289	0.11856	-0.041046	-0.15656	0.015106	-0.13031	0.23743	-0.75256	-0.009003	-0.019836	-0.018616	0.005188	-0.061188	-0.002899	-0.018616	-0.027618	-0.067596	0.005035	-0.004883	0.019836	-0.002899	0.029449	0.001831	0.000458	0.000916
10.138	-0.002899	-0.087585	0.10513	0.003204	0.016479	0.02533	0.00473	0.005646	0.091095	-0.024414	-0.046082	0.019073	-0.046692	0.056458	-0.60883	-0.006409	0.00351	-0.047302	0.15595	0.063324	-0.011292	-0.03479	-0.036163	-0.074921	0.007782	-0.001068	0.020447	-0.003204	0.010529	-0.018005	0.001373	0.004425
10.139	-0.004272	-0.094757	0.084991	-0.003204	0.00412	-0.003204	0.010071	0.011292	0.13428	-0.016479	0.051422	0.019836	0.037079	-0.1384	-0.61233	-0.010681	0.005188	0.016022	0.057526	0.10071	-0.019379	-0.021973	-0.019989	-0.06546	-0.00061	-0.002136	0.027313	-0.009308	0.028687	0.019684	-0.000305	-0.002136
10.14	0.002289	-0.12146	0.035706	0.007629	-0.023346	-0.016022	0.012817	0.017395	0.15808	-0.03891	0.001678	0.024872	0.078888	-0.24368	-0.4538	-0.004578	0.018311	-0.01297	-0.26672	0.034637	-0.018158	-0.005035	0.003815	-0.053101	-0.003052	-0.003052	0.022888	-0.002136	0.052795	0.022888	0.001984	-0.006256
10.141	0.004425	-0.11505	0.093384	0.032654	0.016632	-0.014648	0.065308	0.020752	0.19699	-0.004272	-0.036163	0.015717	0.010529	-0.17807	0.065155	0.006714	-0.004578	-0.045319	-0.1796	-0.014801	0.011444	-0.010376	-0.026855	-0.082245	0.024719	-0.001221	0.042419	-0.005188	-0.098724	-0.000458	0.001678	0.002136
10.142	0.003662	-0.11154	0.081177	0.014038	0.026245	-0.005951	0.12695	-0.000458	0.13351	0.004425	-0.007477	0.019226	-0.02121	-0.086517	0.084229	0.003967	0.003357	-0.059967	-0.086365	0.013123	0.038147	0.00061	-0.025635	-0.078888	0.028229	-0.003815	0.041199	-0.005798	-0.25192	0.012665	-0.001526	0.002441
